#!OML:ASF E:\motion texture\Top Level 1\Subject 1\Session 1\male.ASF
:FULLY-SPECIFIED
:DEGREES
299
root -2.02329 17.9728 3.81888 35.0534 -65.7286 -29.286
lowerback 3.22038 8.39149 8.96396
upperback 1.52718 11.3396 3.05514
thorax 0.904706 5.68029 -1.88881
lowerneck -16.8358 -9.66363 -10.6554
upperneck 6.73673 -12.1811 12.6287
head 6.2307 -5.3773 4.38443
rclavicle 1.98785e-016 -9.93923e-015
rhumerus 30.0411 20.7004 -47.7671
rradius 63.713
rwrist -40.4251
rhand 14.0069 -45.6793
rfingers 7.12502
rthumb 38.9161 -71.2233
lclavicle 1.98785e-016 -9.93923e-015
lhumerus -29.5991 14.2945 78.4828
lradius 46.2782
lwrist -19.9295
lhand -12.6114 25.516
lfingers 7.12502
lthumb 13.4678 55.0606
rfemur -12.3706 -5.19656 37.166
rtibia 21.1128
rfoot -12.1217 -14.4304
rtoes 14.0788
lfemur -35.0319 -9.03353 -0.518496
ltibia 33.856
lfoot -8.28543 0.0773337
ltoes -19.033
300
root -2.17285 17.9701 3.82131 35.2556 -65.6483 -29.4377
lowerback 3.07894 8.57203 9.05117
upperback 1.38815 11.5785 2.97563
thorax 0.894619 5.7977 -1.9954
lowerneck -16.7757 -9.78986 -10.7664
upperneck 6.76845 -12.3548 12.7541
head 6.26778 -5.45684 4.41891
rclavicle 3.27001e-014 2.42517e-014
rhumerus 31.1142 19.0129 -47.5546
rradius 61.9141
rwrist -40.014
rhand 13.053 -46.5292
rfingers 7.12502
rthumb 38.0159 -72.3241
lclavicle 3.27001e-014 2.42517e-014
lhumerus -30.1367 15.5488 77.4595
lradius 46.4542
lwrist -19.9779
lhand -12.7226 25.5924
lfingers 7.12502
lthumb 13.3606 55.1441
rfemur -11.8719 -5.20141 37.4136
rtibia 21.0235
rfoot -12.4275 -14.3916
rtoes 13.6075
lfemur -35.1756 -8.98414 -0.588702
ltibia 32.4552
lfoot -8.12369 0.0102609
ltoes -18.9682
301
root -2.32252 17.9665 3.82564 35.4648 -65.5876 -29.5941
lowerback 2.93592 8.74493 9.12899
upperback 1.247 11.8068 2.89641
thorax 0.881277 5.90941 -2.09606
lowerneck -16.7142 -9.90688 -10.8687
upperneck 6.80092 -12.5179 12.8743
head 6.30312 -5.53137 4.45181
rclavicle -9.88954e-014 -7.55382e-015
rhumerus 32.1584 17.3177 -47.47
rradius 60.0364
rwrist -39.4276
rhand 12.0344 -47.3322
rfingers 7.12502
rthumb 37.0533 -73.3829
lclavicle -9.88954e-014 -7.55382e-015
lhumerus -30.7168 16.7137 76.4429
lradius 46.6469
lwrist -19.979
lhand -12.8171 25.6783
lfingers 7.12502
lthumb 13.2695 55.2359
rfemur -11.3912 -5.20294 37.6444
rtibia 20.971
rfoot -12.7279 -14.3461
rtoes 13.0913
lfemur -35.2908 -8.93664 -0.666989
ltibia 31.0887
lfoot -7.91807 -0.0684363
ltoes -18.8929
302
root -2.47248 17.962 3.83182 35.6725 -65.5472 -29.7477
lowerback 2.79564 8.90886 9.19627
upperback 1.10246 12.0233 2.81434
thorax 0.861118 6.01482 -2.19445
lowerneck -16.6539 -10.0135 -10.9591
upperneck 6.83773 -12.6695 12.9895
head 6.33793 -5.6003 4.48268
rclavicle 2.39536e-014 0
rhumerus 33.1704 15.6249 -47.5168
rradius 58.0998
rwrist -38.6565
rhand 10.9707 -48.061
rfingers 7.12502
rthumb 36.0465 -74.366
lclavicle 2.39536e-014 0
lhumerus -31.3376 17.7904 75.4284
lradius 46.8479
lwrist -19.9402
lhand -12.8972 25.7726
lfingers 7.12502
lthumb 13.1923 55.3352
rfemur -10.9276 -5.20201 37.8548
rtibia 20.9584
rfoot -13.0219 -14.2932
rtoes 12.5327
lfemur -35.3772 -8.89258 -0.756199
ltibia 29.7633
lfoot -7.67111 -0.152105
ltoes -18.8018
303
root -2.62273 17.9567 3.83983 35.8745 -65.5269 -29.8944
lowerback 2.65211 9.06356 9.24871
upperback 0.959452 12.2264 2.73256
thorax 0.840717 6.11344 -2.28395
lowerneck -16.597 -10.1111 -11.0423
upperneck 6.87514 -12.8099 13.101
head 6.37169 -5.66379 4.51261
rclavicle -3.27995e-014 2.54444e-014
rhumerus 34.1574 13.9463 -47.6779
rradius 56.1301
rwrist -37.7084
rhand 9.87446 -48.6953
rfingers 7.12502
rthumb 35.0073 -75.2496
lclavicle -3.27995e-014 2.54444e-014
lhumerus -31.9907 18.7898 74.4234
lradius 47.05
lwrist -19.8694
lhand -12.9657 25.8839
lfingers 7.12502
lthumb 13.1263 55.4507
rfemur -10.4834 -5.20175 38.0419
rtibia 20.9906
rfoot -13.3072 -14.2319
rtoes 11.9262
lfemur -35.4368 -8.85216 -0.857847
ltibia 28.4869
lfoot -7.38944 -0.239749
ltoes -18.69
304
root -2.77347 17.9508 3.84962 36.0706 -65.5284 -30.0352
lowerback 2.5069 9.21 9.28435
upperback 0.81718 12.4179 2.65052
thorax 0.818026 6.206 -2.36462
lowerneck -16.5424 -10.1998 -11.1173
upperneck 6.9143 -12.9398 13.2088
head 6.4046 -5.72213 4.54141
rclavicle 6.13251e-014 -3.10104e-014
rhumerus 35.112 12.2912 -47.95
rradius 54.1536
rwrist -36.5861
rhand 8.76702 -49.2194
rfingers 7.12502
rthumb 33.956 -76.013
lclavicle 6.13251e-014 -3.10104e-014
lhumerus -32.6746 19.7143 73.4275
lradius 47.2454
lwrist -19.7731
lhand -13.0248 25.9965
lfingers 7.12502
lthumb 13.0693 55.567
rfemur -10.0588 -5.20297 38.2051
rtibia 21.0711
rfoot -13.5832 -14.1602
rtoes 11.2743
lfemur -35.4676 -8.81187 -0.972231
ltibia 27.2641
lfoot -7.07928 -0.332636
ltoes -18.5599
305
root -2.9247 17.9442 3.86123 36.2603 -65.551 -30.1679
lowerback 2.35881 9.34745 9.306
upperback 0.675108 12.5967 2.56529
thorax 0.794114 6.29215 -2.44076
lowerneck -16.4906 -10.2795 -11.1821
upperneck 6.95508 -13.0597 13.3152
head 6.43674 -5.77536 4.56948
rclavicle -1.58034e-014 3.26007e-014
rhumerus 36.0304 10.6682 -48.3314
rradius 52.196
rwrist -35.2958
rhand 7.65759 -49.6187
rfingers 7.12502
rthumb 32.9014 -76.6396
lclavicle -1.58034e-014 3.26007e-014
lhumerus -33.3858 20.5664 72.4378
lradius 47.4285
lwrist -19.6576
lhand -13.0778 26.1189
lfingers 7.12502
lthumb 13.0182 55.6927
rfemur -9.65817 -5.20736 38.3429
rtibia 21.2046
rfoot -13.849 -14.0763
rtoes 10.5839
lfemur -35.4745 -8.77209 -1.09964
ltibia 26.1028
lfoot -6.74237 -0.426495
ltoes -18.4013
306
root -3.07626 17.9372 3.87452 36.4278 -65.5884 -30.2812
lowerback 2.21264 9.47328 9.31089
upperback 0.535964 12.7596 2.48061
thorax 0.767251 6.37025 -2.50819
lowerneck -16.4413 -10.3505 -11.2402
upperneck 6.99552 -13.169 13.4195
head 6.46751 -5.8234 4.59721
rclavicle 1.5545e-013 -3.97569e-015
rhumerus 36.911 9.08866 -48.8049
rradius 50.2849
rwrist -33.8546
rhand 6.57674 -49.8942
rfingers 7.12502
rthumb 31.8727 -77.1256
lclavicle 1.5545e-013 -3.97569e-015
lhumerus -34.1189 21.3562 71.4625
lradius 47.5935
lwrist -19.5306
lhand -13.124 26.2295
lfingers 7.12502
lthumb 12.9736 55.8061
rfemur -9.27957 -5.22219 38.4524
rtibia 21.3934
rfoot -14.1002 -13.9827
rtoes 9.84877
lfemur -35.4572 -8.74017 -1.24215
ltibia 25.0113
lfoot -6.38109 -0.522763
ltoes -18.2056
307
root -3.22818 17.9299 3.88945 36.5704 -65.6399 -30.3726
lowerback 2.07201 9.58689 9.30193
upperback 0.397402 12.9066 2.39279
thorax 0.734293 6.44021 -2.57311
lowerneck -16.3934 -10.413 -11.2896
upperneck 7.03676 -13.2688 13.5239
head 6.49724 -5.86658 4.62494
rclavicle -3.07619e-014 -2.22639e-014
rhumerus 37.7445 7.56283 -49.3641
rradius 48.448
rwrist -32.28
rhand 5.52977 -50.0472
rfingers 7.12502
rthumb 30.8751 -77.4724
lclavicle -3.07619e-014 -2.22639e-014
lhumerus -34.8727 22.0796 70.4977
lradius 47.7371
lwrist -19.3929
lhand -13.1693 26.3497
lfingers 7.12502
lthumb 12.9299 55.9291
rfemur -8.9253 -5.24876 38.5324
rtibia 21.6407
rfoot -14.3338 -13.8779
rtoes 9.0765
lfemur -35.4175 -8.71742 -1.39982
ltibia 23.9957
lfoot -6.001 -0.62441
ltoes -17.9733
308
root -3.38044 17.9224 3.90605 36.6857 -65.7043 -30.4409
lowerback 1.93509 9.68834 9.27868
upperback 0.261908 13.0373 2.30366
thorax 0.698193 6.50202 -2.63304
lowerneck -16.3474 -10.4675 -11.3317
upperneck 7.07749 -13.3593 13.6281
head 6.52564 -5.90506 4.65279
rclavicle -6.88789e-014 -3.79679e-014
rhumerus 38.5258 6.10126 -49.9924
rradius 46.7106
rwrist -30.5932
rhand 4.54022 -50.0959
rfingers 7.12502
rthumb 29.9313 -77.6956
lclavicle -6.88789e-014 -3.79679e-014
lhumerus -35.6414 22.7431 69.5496
lradius 47.8543
lwrist -19.2527
lhand -13.2155 26.4763
lfingers 7.12502
lthumb 12.8854 56.0585
rfemur -8.59715 -5.29037 38.5817
rtibia 21.9495
rfoot -14.5467 -13.7594
rtoes 8.27205
lfemur -35.3559 -8.70589 -1.57236
ltibia 23.0594
lfoot -5.60807 -0.735154
ltoes -17.7019
